<?xml version="1.0" standalone="no"?>
<!DOCTYPE svg PUBLIC "-//W3C//DTD SVG 20010904//EN"
 "http://www.w3.org/TR/2001/REC-SVG-20010904/DTD/svg10.dtd">
<svg version="1.0" xmlns="http://www.w3.org/2000/svg"
 width="1920.000000pt" height="1920.000000pt" viewBox="0 0 1920.000000 1920.000000"
 preserveAspectRatio="xMidYMid meet">

<g transform="translate(0.000000,1920.000000) scale(0.100000,-0.100000)"
fill="#000000" stroke="none">
<path d="M48 19193 c7 -3 16 -2 19 1 4 3 -2 6 -13 5 -11 0 -14 -3 -6 -6z"/>
<path d="M4837 19193 c2619 -2 6907 -2 9530 0 2622 1 480 2 -4762 2 -5242 0
-7387 -1 -4768 -2z"/>
<path d="M5 9605 c0 -5247 1 -7395 2 -4773 2 2621 2 6914 0 9540 -1 2625 -2
480 -2 -4767z"/>
<path d="M11440 14850 c-506 -52 -919 -381 -1042 -830 -20 -74 -23 -107 -22
-255 0 -153 3 -180 28 -270 118 -433 415 -695 948 -839 215 -58 449 -96 938
-151 356 -40 456 -55 620 -95 518 -127 885 -379 1055 -725 65 -132 95 -244
104 -387 5 -91 9 -111 27 -128 l21 -21 31 26 c21 18 37 44 46 78 46 164 61
458 31 613 -91 474 -447 808 -1090 1019 -201 66 -413 117 -875 209 -234 47
-481 101 -549 120 -210 61 -331 133 -395 234 -101 162 -60 370 88 442 64 31
157 43 222 30 124 -26 173 -126 174 -356 0 -45 3 -109 7 -144 l6 -62 41 6
c103 17 227 98 362 237 102 106 161 199 198 310 56 167 43 328 -41 499 -39 79
-60 109 -137 186 -168 168 -348 244 -611 257 -55 3 -138 1 -185 -3z"/>
<path d="M8860 13154 c-199 -38 -340 -106 -463 -223 -125 -118 -181 -244 -181
-411 0 -172 54 -309 175 -445 241 -271 289 -411 167 -485 -37 -22 -191 -61
-498 -124 -412 -86 -669 -155 -1043 -283 -1192 -406 -2003 -926 -2077 -1332
-57 -313 338 -524 1130 -605 485 -50 1223 -47 2010 9 2056 147 4136 571 5065
1032 377 188 576 386 578 576 1 83 -15 135 -67 209 -200 294 -870 540 -1776
652 -317 39 -437 47 -830 53 -364 5 -608 -2 -1010 -32 -332 -25 -544 -35 -598
-28 l-51 6 -17 74 c-17 79 -14 158 8 210 7 15 38 69 69 118 79 126 105 181
134 281 68 235 29 430 -115 574 -71 71 -168 126 -275 155 -59 16 -283 29 -335
19z m-1970 -2302 c0 -22 -131 -161 -369 -392 -145 -140 -310 -310 -367 -377
-190 -221 -258 -267 -399 -267 -118 0 -130 5 -146 61 -60 206 55 351 488 616
249 152 484 267 678 333 108 37 115 38 115 26z"/>
<path d="M13749 10351 c-41 -13 -72 -32 -102 -60 -50 -45 -52 -57 -18 -100 47
-59 71 -119 71 -179 0 -173 -184 -284 -750 -448 -1122 -326 -2469 -525 -4110
-606 -342 -17 -1569 -17 -1880 0 -619 34 -1150 85 -1405 137 -125 25 -313 77
-600 164 -93 29 -192 53 -220 54 l-50 2 -33 -65 c-32 -61 -33 -70 -30 -150 6
-121 40 -182 179 -320 117 -117 158 -185 184 -308 16 -72 20 -249 7 -270 -7
-9 -42 1 -148 44 -177 71 -394 126 -604 154 -281 36 -393 66 -454 120 l-31 29
56 25 c118 54 201 56 454 10 140 -26 266 -36 281 -22 18 19 -20 93 -74 147
-72 71 -161 115 -311 152 -312 79 -716 55 -900 -54 -165 -97 -262 -280 -234
-441 28 -161 140 -289 343 -391 164 -82 292 -119 645 -186 396 -74 572 -128
726 -219 131 -77 215 -173 261 -296 21 -57 22 -74 24 -409 1 -305 4 -365 22
-465 56 -314 183 -559 418 -809 344 -366 950 -703 1639 -910 1376 -415 2836
-440 4185 -71 684 187 1338 472 1800 784 298 201 470 360 623 577 194 276 323
631 392 1075 39 253 48 389 47 709 -1 165 3 329 9 365 25 156 132 271 359 385
163 82 290 118 625 176 127 22 266 49 310 60 353 88 592 234 682 416 25 53 28
68 28 163 0 100 -2 109 -34 174 -65 132 -193 232 -351 275 -340 92 -853 18
-1043 -150 -49 -43 -87 -103 -87 -139 0 -18 6 -20 78 -20 43 0 143 12 222 26
160 29 310 35 378 16 23 -7 58 -27 78 -44 l36 -32 -27 -14 c-82 -43 -191 -69
-466 -112 -276 -43 -393 -75 -652 -179 -70 -28 -130 -51 -133 -51 -4 0 -5 62
-2 138 5 152 8 161 94 295 132 205 156 341 86 492 -58 122 -226 271 -373 331
-66 27 -176 40 -220 25z m-8185 -2503 c48 -83 73 -205 111 -538 60 -529 125
-791 263 -1066 91 -182 161 -273 377 -494 111 -113 216 -226 234 -253 37 -54
96 -176 88 -183 -9 -9 -152 28 -227 59 -212 87 -458 271 -626 469 -214 249
-301 481 -334 878 -15 188 -16 910 -1 990 18 91 57 180 81 180 5 0 20 -19 34
-42z"/>
</g>
</svg>
